# xmcd
#
# Track frame offsets:
#	150
#	16469
#	30578
#	46385
#	64559
#	82037
#	100573
#	118627
#	137287
#	154413
#	177569
#
# Disc length: 2696 seconds
#
# Revision: 1
# Processed by: cddbd v1.5.2PL0 Copyright (c) Steve Scherf et al.
# Submitted via: audiograbber 1.81.02
#
DISCID=870a860b
DTITLE=Amy MacDonald - This Is The Life
DYEAR=2007
DGENRE=
TTITLE0=Mr Rock and Roll
TTITLE1=This Is The Life
TTITLE2=Poison Of Prince
TTITLE3=Youth Of Today
TTITLE4=Run
TTITLE5=Let`'s Start A Band
TTITLE6=Barrowland Ballroom
TTITLE7=L.A.
TTITLE8=A Wish For Something More
TTITLE9=Footballer's Wife
TTITLE10=The Road To Home
EXTD=
EXTT0=
EXTT1=
EXTT2=
EXTT3=
EXTT4=
EXTT5=
EXTT6=
EXTT7=
EXTT8=
EXTT9=
EXTT10=
PLAYORDER=
